<?xml version="1.0" standalone="no"?>
<!DOCTYPE svg PUBLIC "-//W3C//DTD SVG 1.1//EN" "http://www.w3.org/Graphics/SVG/1.1/DTD/svg11.dtd" >
<!--
2013-9-30: Created.
-->
<svg>
<metadata>
Created by iconfont
</metadata>
<defs>

<font id="iconfont" horiz-adv-x="1024" >
  <font-face
    font-family="iconfont"
    font-weight="500"
    font-stretch="normal"
    units-per-em="1024"
    ascent="896"
    descent="-128"
  />
    <missing-glyph />
    
    <glyph glyph-name="x" unicode="x" horiz-adv-x="1001"
d="M281 543q-27 -1 -53 -1h-83q-18 0 -36.5 -6t-32.5 -18.5t-23 -32t-9 -45.5v-76h912v41q0 16 -0.5 30t-0.5 18q0 13 -5 29t-17 29.5t-31.5 22.5t-49.5 9h-133v-97h-438v97zM955 310v-52q0 -23 0.5 -52t0.5 -58t-10.5 -47.5t-26 -30t-33 -16t-31.5 -4.5q-14 -1 -29.5 -0.5
t-29.5 0.5h-32l-45 128h-439l-44 -128h-29h-34q-20 0 -45 1q-25 0 -41 9.5t-25.5 23t-13.5 29.5t-4 30v167h911zM163 247q-12 0 -21 -8.5t-9 -21.5t9 -21.5t21 -8.5q13 0 22 8.5t9 21.5t-9 21.5t-22 8.5zM316 123q-8 -26 -14 -48q-5 -19 -10.5 -37t-7.5 -25t-3 -15t1 -14.5
t9.5 -10.5t21.5 -4h37h67h81h80h64h36q23 0 34 12t2 38q-5 13 -9.5 30.5t-9.5 34.5q-5 19 -11 39h-368zM336 498v228q0 11 2.5 23t10 21.5t20.5 15.5t34 6h188q31 0 51.5 -14.5t20.5 -52.5v-227h-327z" />
    

    
    <glyph glyph-name="top1" unicode="&#59000;" d="M293.276998 213.520393l50.894134 0 0-142.504598 34.631752 0L378.802884 213.520393l50.777477 0 0 29.014824L293.276998 242.535217 293.276998 213.520393zM370.051569 338.568411l164.372651 159.360498 164.393117-159.360498 15.537881 13.945617L549.373701 512.424041l4.108574 3.982708-15.514345 13.922081-3.532453-3.425006-3.533476 3.425006-15.537881-13.922081 4.118807-3.992941L354.513688 352.515051 370.051569 338.568411zM522.430048 721.809885c-238.20931 0-431.303097-193.09481-431.303097-431.303097s193.09481-431.30412 431.303097-431.30412c238.20931 0 431.303097 193.09481 431.303097 431.30412S760.639359 721.809885 522.430048 721.809885zM522.430048-116.836617c-224.964658 0-407.342382 182.377724-407.342382 407.342382S297.46539 697.848147 522.430048 697.848147c224.965681 0 407.342382-182.377724 407.342382-407.342382S747.39573-116.836617 522.430048-116.836617zM527.859711 245.46085c-13.970176 0-26.278503-2.245134-36.972053-6.785543-8.025791-3.347235-15.420201-8.494465-22.183232-15.443737-6.738471-6.92676-12.050454-14.766308-15.95846-23.5166-5.217838-11.839653-7.838525-26.511817-7.838525-43.99091 0-27.284413 7.534604-48.718585 22.580275-64.278979 15.045671-15.560394 35.33374-23.352871 60.839647-23.352871 25.200962 0 45.325301 7.816013 60.370972 23.470551 15.045671 15.631002 22.580275 37.299511 22.580275 64.980967 0 27.939329-7.581676 49.724495-22.76754 65.402569C573.347718 237.622324 553.130258 245.46085 527.859711 245.46085zM562.186518 112.621379c-8.845459-9.94449-20.170388-14.929014-33.975812-14.929014s-25.201985 5.008061-34.164101 15.045671c-8.962116 10.015098-13.45443 24.733311-13.45443 44.154639 0 19.74981 4.375657 34.491559 13.104459 44.295855 8.727779 9.781784 20.239973 14.672164 34.515095 14.672164 14.273075 0 25.716708-4.820796 34.326806-14.508435 8.634658-9.664104 12.94073-24.335245 12.94073-43.99091C575.477218 137.471346 571.055512 122.565868 562.186518 112.621379zM735.063867 239.962625c-6.388501 1.731434-20.12434 2.573615-41.183981 2.573615l-55.574736 0 0-171.519422 34.631752 0 0 64.700581 22.580275 0c15.678074 0 27.65792 0.819668 35.919071 2.456958 6.083555 1.334391 12.075013 4.048199 17.947767 8.143471 5.897314 4.094248 10.764158 9.733689 14.57802 16.894785 3.814886 7.18361 5.733585 16.028045 5.733585 26.557866 0 13.665231-3.322675 24.780383-9.945513 33.415041C753.128291 231.796642 744.891699 237.387987 735.063867 239.962625zM730.079342 175.964032c-2.597151-3.814886-6.201236-6.621814-10.810207-8.422833-4.609994-1.778506-13.735839-2.691295-27.377534-2.691295l-18.953677 0 0 48.671513 16.731056 0c12.472056 0 20.779256-0.37453 24.921599-1.170662 5.615904-1.004887 10.249435-3.532453 13.922081-7.605212 3.673669-4.048199 5.499248-9.195429 5.499248-15.443737C734.010885 184.247696 732.701053 179.801431 730.079342 175.964032z"  horiz-adv-x="1024" />

    
    <glyph glyph-name="jinbi" unicode="&#58978;" d="M511.995 635.626c-203.771 0-368.957-165.184-368.957-368.954 0-203.781 165.186-368.965 368.957-368.965 203.772 0 368.966 165.184 368.966 368.965 0 203.77-165.194 368.954-368.966 368.954zM273.899 121.076c0 0-37.676 53.707-37.676 137.882 0 84.167 38.481 150.301 38.481 150.301s42.484-59.322 42.484-146.294c0.001-86.973-43.289-141.89-43.289-141.89zM515.929-6.276c-84.175 0-150.31 38.474-150.31 38.474s59.331 42.493 146.305 42.493c86.977 0 141.88-43.295 141.88-43.295s-53.703-37.672-137.875-37.672zM377.51 392.048c0 0 75.824-14.939 135.697-14.939 59.876 0 123.462 16.058 123.462 16.058-34.294-103.432-5.619-247.351-5.619-247.351-146.73 27.549-254.661-7.303-254.661-7.303 43.849 149.539 1.122 253.535 1.122 253.535zM515.929 456.759c-84.175 0-150.31 38.488-150.31 38.488s59.331 42.483 146.305 42.483c86.977 0 141.88-43.289 141.88-43.289s-53.703-37.681-137.875-37.681zM740.773 121.076c0 0-37.66 53.707-37.66 137.882 0 84.167 38.471 150.301 38.471 150.301s42.494-59.321 42.494-146.294c0-86.973-43.305-141.89-43.305-141.89z"  horiz-adv-x="1024" />

    
    <glyph glyph-name="dui1" unicode="&#59063;" d="M512 844.52883c-254.286 0-460.477666-206.191666-460.477666-460.477666s206.191666-460.477666 460.477666-460.477666 460.477666 206.191666 460.477666 460.477666S766.286 844.52883 512 844.52883zM760.760268 487.402818l-281.403018-281.403018c-10.232837-10.232837-23.84251-15.451584-37.349855-15.451584-13.507345 0-27.01469 5.116419-37.349855 15.451584L263.239732 347.417608c-20.670331 20.568002-20.670331 54.029379 0 74.69971s54.029379 20.568002 74.69971 0l104.170281-104.067952 244.053163 244.053163c20.568002 20.568002 54.029379 20.568002 74.69971 0C781.430599 541.432197 781.430599 507.97082 760.760268 487.402818z"  horiz-adv-x="1024" />

    
    <glyph glyph-name="shexiangtou" unicode="&#58905;" d="M511.441275 500.510574c-22.074761 0-42.468231-6.476505-60.023048-17.150612 5.476735 1.716084 11.158131 2.833535 17.158798 2.833535 32.505321 0 58.818617-26.312272 58.818617-58.824757 0-32.475646-26.308179-58.782801-58.818617-58.782801-32.516578 0-58.788941 26.312272-58.788941 58.782801 0 6.03546 1.157359 11.722996 2.845815 17.198707-10.720156-17.558911-17.198707-37.95238-17.198707-60.029188 0-64.137763 51.864228-116.007107 116.006084-116.007107 64.103993 0 116.01427 51.868321 116.01427 116.007107C627.455545 448.642253 575.545268 500.510574 511.441275 500.510574zM510.976694 830.50124c-246.298546 0-445.962981-199.664436-445.962981-445.962981s199.664436-445.962981 445.962981-445.962981S956.938652 138.240737 956.938652 384.539282 757.275239 830.50124 510.976694 830.50124zM511.441275 789.27735c52.661384 0 102.870926-10.429537 149.043524-28.925796-39.059598-36.498262-91.323938-58.969043-149.043524-58.969043-57.71754 0-109.982904 22.471804-149.041478 58.969043C408.571373 778.847813 458.781938 789.27735 511.441275 789.27735zM511.441275 165.39826c-121.127731 0-219.146139 98.058316-219.146139 219.139999 0 121.05303 98.018408 219.105207 219.146139 219.105207 121.048937 0 219.147162-98.052177 219.147162-219.105207C730.588437 263.456576 632.490212 165.39826 511.441275 165.39826z"  horiz-adv-x="1024" />

    
    <glyph glyph-name="kefu" unicode="&#58943;" d="M510.097674 706.505181c-134.373407 0-243.281839-106.623389-243.281839-238.182704 0-131.541919 108.908432-238.179634 243.281839-238.179634 134.3775 0 243.285932 106.636692 243.285932 238.179634C753.383606 599.882815 644.475174 706.505181 510.097674 706.505181L510.097674 706.505181zM510.097674 706.505181M229.17761 376.897232 229.17761 596.790384c-3.079128 0-6.132674-0.125867-9.148357-0.366344C269.882684 704.650951 380.918569 780.025639 510.135536 780.025639c129.21185 0 240.253876-75.374688 290.103214-183.600575-3.016707 0.240477-6.066159 0.366344-9.148357 0.366344l0-219.894176c62.052265 0 112.390743 49.231261 112.390743 109.941971 0 41.235147-23.219841 77.163427-57.552787 95.982028-48.314379 136.089491-180.214455 233.837746-335.792812 233.837746-155.577335 0-287.469224-97.739045-335.788719-233.824443-34.344203-18.815531-57.555857-54.750975-57.555857-95.990215C116.79096 426.128493 167.090553 376.897232 229.17761 376.897232L229.17761 376.897232zM229.17761 376.897232M752.869906 250.839211c-63.570851-58.08593-148.919704-93.65196-242.772232-93.65196-93.676519 0-178.881087 35.435047-242.415099 93.327572C153.974837 193.232189 79.32465 91.277122 79.32465-47.226349l864.503403 0C943.827029 91.534995 867.780029 193.614905 752.869906 250.839211L752.869906 250.839211zM752.869906 250.839211"  horiz-adv-x="1024" />

    
    <glyph glyph-name="touxiang2" unicode="&#58882;" d="M960.095 385.374c0 247.028-201.016 447.976-448.104 447.976-247.086 0-448.088-200.948-448.088-447.976 0-128.348 54.355-244.184 141.164-325.931l-0.314-0.394 11.32-9.954c1.535-1.347 3.193-2.493 4.749-3.806 7.959-6.834 16.102-13.445 24.547-19.709 2.345-1.735 4.743-3.38 7.127-5.081 9.036-6.425 18.23-12.632 27.72-18.396 1.498-0.908 3.051-1.735 4.563-2.623 10.050-5.93 20.317-11.529 30.849-16.677 0.584-0.3 1.159-0.614 1.75-0.908 11.324-5.482 22.959-10.413 34.776-14.94 0.873-0.334 1.723-0.682 2.574-1.015 11.578-4.361 23.421-8.186 35.427-11.58 1.125-0.314 2.231-0.648 3.357-0.96 11.784-3.234 23.754-5.986 35.883-8.254 1.386-0.262 2.751-0.499 4.139-0.742 11.988-2.124 24.121-3.841 36.418-4.989 1.368-0.128 2.734-0.2 4.086-0.314 12.52-1.053 25.156-1.719 37.951-1.719 12.802 0 25.436 0.663 37.959 1.719 1.349 0.112 2.694 0.186 4.046 0.314 12.317 1.147 24.47 2.864 36.496 4.989 1.33 0.239 2.661 0.466 4.007 0.721 12.21 2.29 24.23 5.041 36.069 8.293 1.036 0.276 2.070 0.587 3.105 0.881 12.115 3.42 24.049 7.299 35.736 11.694 0.706 0.26 1.408 0.554 2.11 0.83 12.002 4.584 23.788 9.589 35.255 15.165 0.356 0.166 0.687 0.35 1.038 0.533 10.896 5.32 21.498 11.099 31.878 17.25 1.271 0.753 2.585 1.461 3.858 2.216 9.737 5.89 19.138 12.225 28.369 18.824 2.163 1.531 4.346 3.028 6.464 4.597 8.647 6.41 17.010 13.189 25.157 20.208 1.422 1.216 2.957 2.265 4.36 3.506l11.286 9.957-0.3 0.348c86.842 81.72 141.211 197.575 141.211 325.945v0zM109.029 386.436c0 222.128 180.775 402.849 402.962 402.849 222.185 0 402.962-180.705 402.962-402.849 0-115.158-48.663-219.116-126.425-292.604-28.515 27.549-72.327 44.112-124.092 58.41-23.413 10.327-28.635 12.859-34.542 17.566l-6.275 6.255c-9.451 9.18-14.66 14.232-16.498 27.909v47.748c16.605 19.313 27.123 45.025 37.429 78.926 13.964 5.332 27.855 22.947 32.26 42.563 4.69 21.17 2.462 38.929-5.601 48.806 22.775 86.057 19.276 159.575-9.738 198.021-15.265 20.24-37.465 30.962-64.211 30.978-2.464 2.017-4.082 4.223-6.119 6.991-10.444 14.279-21.574 24.408-69.934 24.408l-5.187-0.030c-58.094 0-102.14-17.494-130.904-52.035-36.893-44.222-47.345-114.767-31.17-209.775-6.95-9.928-9.079-26.571-5.345-46.309 3.507-18.438 15.153-35.144 28.224-42.013 12.713-36.982 25.962-62.676 41.172-79.906 0.873-28.013 1.162-45.451 0.055-51.44-1.619-8.688-6.294-16.673-14.748-25.111-7.918-7.912-18.493-13.71-40.438-22.447-54.102-14.91-98.594-31.664-127.378-59.461-77.794 73.443-126.458 177.391-126.458 292.549v0z"  horiz-adv-x="1024" />

    
    <glyph glyph-name="left-copy-copy" unicode="&#58880;" d="M226.865-6.001l389.85 390-389.85 390 90.12 89.85 480.15-479.85-480.18-479.85-90.090 89.85z"  horiz-adv-x="1024" />

    
    <glyph glyph-name="xia" unicode="&#58999;" d="M987.92334 631.184729c-25.052582 25.052582-66.047252 25.052582-91.099834 0l-385.274784-385.274784L128.172171 629.286496c-25.052582 25.052582-66.047252 25.052582-91.099834 0s-25.052582-66.047252 0-91.099834l425.130514-425.130514c25.052582-25.052582 75.53637-23.155373 100.588953 1.898233l425.130514 425.130514C1012.975922 565.1385 1012.975922 606.132146 987.92334 631.184729z"  horiz-adv-x="1024" />

    
    <glyph glyph-name="cha" unicode="&#58886;" d="M512.569198-127.715796C229.928009-127.715796 0 101.891569 0 384.145671 0 666.392635 229.928009 896 512.569198 896 795.217554 896 1025.145563 666.392635 1025.145563 384.145671 1025.145563 101.891569 795.217554-127.715796 512.569198-127.715796L512.569198-127.715796ZM512.569198 822.549065C270.491867 822.549065 73.553554 625.885367 73.553554 384.145671 73.553554 142.437398 270.491867-54.264861 512.569198-54.264861 754.615077-54.264861 951.592009 142.437398 951.592009 384.145671 951.592009 625.885367 754.615077 822.549065 512.569198 822.549065L512.569198 822.549065ZM564.122478 382.571827 722.436315 538.945339C736.820882 553.127095 736.932498 576.273496 722.726619 590.638058 708.519351 605.009766 685.307685 605.121163 670.955959 590.93512L512.424741 434.375943 356.313381 590.750881C341.994569 605.042608 318.854437 605.121163 304.54133 590.82229 290.223909 576.563412 290.189605 553.422731 304.469797 539.123858L460.363776 382.97314 303.184091 227.699324C288.799451 213.473295 288.686446 190.371167 302.893787 175.999466 310.067493 168.75863 319.480832 165.143925 328.927086 165.143925 338.223177 165.143925 347.524974 168.685787 354.664375 175.709542L512.061513 331.163312 670.737189 172.194809C677.87659 165.032521 687.25131 161.450664 696.658944 161.450664 706.033664 161.450664 715.368375 165.032521 722.507776 172.123407 736.820882 186.382285 736.860965 209.490117 722.580773 223.821839L564.122478 382.571827 564.122478 382.571827Z"  horiz-adv-x="1026" />

    
    <glyph glyph-name="xiaoxi1" unicode="&#58920;" d="M992 384c0 265.088-214.912 480-480 480-265.151 0-480-214.912-480-480 0-265.152 214.849-480 480-480 265.088 0 480 214.848 480 480zM928 384c0-229.376-186.624-416-416-416s-416 186.624-416 416 186.624 416 416 416 416-186.624 416-416zM637.59 503.144c-2.191 5.836-6.6 10.576-12.209 13.14-4.593 2.578-10.030 3.696-15.614 2.814-13.282-2.091-22.343-14.67-20.226-28.092 1.197-7.602 5.725-13.839 11.833-17.447 23.449-25.090 37.883-58.696 37.883-95.76 0-40.552-17.292-76.979-44.788-102.63-5.099-4.399-8.33-10.899-8.33-18.159 0-13.245 10.738-23.981 23.985-23.981 6.779 0 12.895 2.816 17.259 7.343 4.655 2.701 8.285 6.976 10.207 12.11 30.049 33.186 48.518 77.021 48.518 125.318-0 48.308-18.469 92.133-48.518 125.344v0zM721.494 590.619c-3.987 8.122-12.339 13.715-22 13.715-13.526 0-24.492-10.967-24.492-24.497 0-8.881 4.721-16.657 11.795-20.951 41.513-43.44 67.147-102.169 67.147-167 0-72.588-32.122-137.542-82.757-181.879l0.092-0.11c-7.945-3.942-13.409-12.136-13.409-21.604 0-13.316 10.794-24.108 24.111-24.108 7.908 0 14.928 3.808 19.323 9.69 0.214 0.251 0.426 0.505 0.628 0.763l0.063-0.060c60.521 52.969 98.939 130.568 98.939 217.309 0.004 77.050-30.288 146.938-79.44 198.732v0zM463.773 632.249l-120.444-123.229h-73.409c-31.406 0-46.854-16.908-46.854-46.864v-156.158c0-29.465 15.939-46.867 46.854-46.867h73.409l120.445-123.217c34.608-32.501 87.272-18.179 87.272 35.782v424.78c-0.001 54.518-53.322 67.59-87.273 35.773v0zM504.19 195.699c0-35.475-15.725-15.584-31.859 0.338-28.125 27.758-70.616 72.61-105.546 109.961h-65.63c-23.748 0-31.235 7.964-31.235 31.233v93.699c0 22.78 7.978 31.227 31.235 31.227h66.361c34.748 37.55 76.825 82.322 104.933 109.828 15.954 15.61 31.741 35.949 31.741-0.985 0-76.303 0-300.538 0-375.301v0z"  horiz-adv-x="1024" />

    
    <glyph glyph-name="zhangdan-copy" unicode="&#58883;" d="M316.3 896c-35.4 0-64-28.6-64-64v-64h490.7c35.4 0 64-28.6 64-64v-661.3h64c35.4 0 64 28.6 64 64v725.3c0 35.4-28.6 64-64 64h-554.7zM707.7 725.3h-554.7c-35.4 0-64-28.6-64-64v-725.3c0-35.4 28.6-64 64-64h554.7c35.4 0 64 28.6 64 64v725.3c0 35.4-28.6 64-64 64zM575.5 249.1c17.6 0 30-13.4 30-29.8s-12.4-28-30-28l-127.3-0v-79.7c0-13.9-13.7-25.2-30.6-25.2-16.8 0-28.7 11.3-28.7 25.2v79.7h-101.8c-17.6 0-31.9 11.5-31.9 28 0 16.4 14.3 29.8 31.9 29.8h101.8v57.7h-101.8c-17.6 0-31.9 11.5-31.9 28 0 16.4 14.3 29.8 31.9 29.8h83.6l-93.1 100.7c-8.4 9.2-5 25.6 7.7 36.5 12.6 10.9 29.6 12.3 38 3.1l95.2-104.9 93.4 104.9c8.4 9.2 25.4 7.8 38-3.1s16-27.3 7.7-36.5l-93.1-100.7h109.1c17.6 0 31.9-13.3 31.9-29.8s-14.3-28-31.9-28l-125.4 0v-57.7l127.3 0z"  horiz-adv-x="1024" />

    
    <glyph glyph-name="jifen-copy" unicode="&#58884;" d="M518.206 370.39c219.966 0 385.848 82.573 385.848 192.078s-165.882 192.078-385.848 192.078c-219.976 0-385.853-82.573-385.853-192.078s165.878-192.078 385.853-192.078zM518.206 686.763c180.525 0 315.419-65.618 315.419-124.294s-134.894-124.301-315.419-124.301c-180.532 0-315.427 65.622-315.427 124.301s134.895 124.294 315.427 124.294zM518.206 248.349c-180.532 0-315.427 65.618-315.427 124.297h-70.427c0-109.503 165.878-192.078 385.853-192.078 219.966 0 385.848 82.575 385.848 192.078h-70.429c0.002-58.682-134.894-124.297-315.419-124.297zM518.206 79.62c-180.532 0-315.427 65.622-315.427 124.29h-70.427c0-109.496 165.878-192.070 385.853-192.070 219.966 0 385.848 82.575 385.848 192.070h-70.429c0.002-58.668-134.894-124.29-315.419-124.29z"  horiz-adv-x="1024" />

    
    <glyph glyph-name="shezhi" unicode="&#58923;" d="M833.704 453.539l-75.06 0c-5.529 19.559-13.261 38.093-22.988 55.45l53.146 53.094c14.028 14.08 14.028 36.967 0 51.047l-47.924 47.82c-14.08 14.132-36.915 14.132-51.046 0l-53.043-53.094c-17.357 9.728-35.994 17.51-55.501 22.989l0 75.06c0 19.968-16.128 36.096-36.045 36.096l-67.687 0c-19.917 0-36.045-16.128-36.045-36.096l0-75.06c-19.507-5.479-38.144-13.261-55.501-22.989l-53.043 53.094c-14.131 14.132-36.966 14.132-51.046 0l-47.872-47.82c-14.08-14.08-14.08-36.967 0-51.047l53.094-53.094c-9.728-17.357-17.459-35.891-22.989-55.45l-75.059 0c-19.917 0-36.096-16.179-36.096-36.096l0-67.635c0-19.917 16.179-36.096 36.096-36.096l75.059 0c5.53-19.507 13.261-38.144 22.989-55.501l-53.094-53.043c-14.08-14.08-14.08-36.966 0-51.046l47.872-47.872c14.08-14.08 36.915-14.08 51.046 0l53.043 53.094c17.357-9.677 35.994-17.459 55.501-22.988l0-75.06c0-19.917 16.128-36.096 36.045-36.096l67.687 0c19.917 0 36.045 16.179 36.045 36.096l0 75.06c19.507 5.529 38.144 13.312 55.501 22.988l53.043-53.094c14.131-14.08 36.966-14.08 51.046 0l47.924 47.872c14.028 14.08 14.028 36.966 0 51.046l-53.146 53.043c9.728 17.408 17.459 35.994 22.988 55.501l75.06 0c19.917 0 36.096 16.179 36.096 36.096l0 67.635C869.8 437.36 853.621 453.539 833.704 453.539L833.704 453.539zM511.399 235.632c-81.715 0-147.968 66.253-147.968 147.968 0 81.715 66.253 147.968 147.968 147.968 81.716 0 147.969-66.253 147.969-147.968C659.368 301.885 593.115 235.632 511.399 235.632L511.399 235.632zM511.399 383.6 511.399 383.6zM440.59 383.6 440.59 383.6z"  horiz-adv-x="1024" />

    
    <glyph glyph-name="fenxiang" unicode="&#58918;" d="M908.280954 223.811648c-32.602535 32.5483-75.31329 48.848545-118.077256 48.848545-42.709731 0-85.419462-16.301268-118.02302-48.848545-5.486968-5.487991-9.943466-11.68411-14.508435-17.769712L447.493336 328.95636c5.216815 17.603937 8.856715 35.80753 8.856715 55.04364 0 17.551748-3.096525 34.233686-7.443529 50.42546l212.136491 116.66407c1.249457 0.706081 2.065032 1.848091 3.15076 2.716878 30.646997-35.537378 75.42176-58.521858 126.010949-58.521858 92.211145 0 166.926824 74.714655 166.926824 166.926824S882.414843 829.138196 790.203698 829.138196s-166.926824-74.714655-166.926824-166.926824c0-21.952988 4.50971-42.763966 12.225439-62.000076-0.434905-0.216941-0.923022-0.162706-1.303692-0.38067L426.95251 485.8292c-34.342156 55.588039-95.254457 92.918249-165.350932 92.918249-107.535155 0-194.748473-87.213317-194.748473-194.748473S154.067446 189.250504 261.602601 189.250504c68.357877 0 128.291898 35.375695 163.014724 88.62548l207.354582-121.228015c-18.420535-57.653071-5.487991-123.184577 40.209794-168.93762 32.603559-32.5483 75.31329-48.848545 118.02302-48.848545 42.763966 0 85.473697 16.301268 118.077256 48.848545C973.432813 52.917466 973.432813 158.659789 908.280954 223.811648zM790.203698 773.495922c61.347207 0 111.284549-49.936319 111.284549-111.284549s-49.937342-111.284549-111.284549-111.284549-111.284549 49.936319-111.284549 111.284549S728.856491 773.495922 790.203698 773.495922zM261.602601 244.892779c-76.671217 0-139.106198 62.436004-139.106198 139.106198 0 76.67224 62.434981 139.106198 139.106198 139.106198s139.106198-62.433958 139.106198-139.106198C400.707776 307.328783 338.272795 244.892779 261.602601 244.892779zM868.938923 27.053402c-21.083178-20.97573-49.012274-32.550347-78.735226-32.550347s-57.653071 11.574616-78.682014 32.550347c-43.416835 43.416835-43.416835 114.000404 0 157.417239 21.028942 21.029966 48.959062 32.5483 78.682014 32.5483s57.653071-11.518335 78.735226-32.5483C912.301524 141.053806 912.301524 70.469214 868.938923 27.053402z"  horiz-adv-x="1024" />

    
    <glyph glyph-name="fankui" unicode="&#59294;" d="M705.650465 791.466202c34.459836 0 62.432934-27.89635 62.432934-62.256926v-305.033251l5.974062 14.544251L419.915745 79.777207l14.858406 6.205329H184.712909c-34.488489 0-62.416562 27.76946-62.416562 62.045101V812.215782L101.464903 791.466202h604.185562zM80.632435 832.965361V148.027637c0-57.20998 46.597271-103.543238 104.080474-103.543237H443.509093l6.122441 6.205328 354.141716 358.943069 5.974061 6.054903V729.209276c0 57.268308-46.614667 103.755062-104.096846 103.755062H80.632435z m672.720472-524.814863l-14.730493-14.672164 14.730493-14.672165 83.327823-82.998319 14.730493-14.672164 14.730493 14.672164 62.495356 62.24874 14.730493 14.672164-14.730493 14.672164-83.327824 82.998319-14.730492 14.672165-14.730493-14.672165-62.495356-62.248739z m62.495356 32.903387l83.327824-82.998319v29.344329l-62.495357-62.248739h29.460986l-83.327824 82.998319v-29.344329l62.495356 62.248739h-29.460985zM524.202926 79.90512l-4.459568-4.442172-1.237177-6.160303-20.831444-103.747899-6.128581-30.520107 30.640857 6.104021 104.159268 20.74958 6.184863 1.23206 4.459568 4.442173L866.140693 195.80785l14.730492 14.672165-14.730492 14.672164-83.327824 82.998319-14.730493 14.672164-14.730493-14.672164-229.148957-228.245378z m229.149981 198.901049l83.327823-82.998319v29.344329L607.529727-3.092176l10.644431 5.674233-104.159268-20.749579 24.512277-24.416086 20.831444 103.747899-5.696746-10.602476 229.149981 228.244354h-29.458939z m-311.413566 21.233604c15.71389 0 28.452006-12.673647 28.452006-28.324092v-7.501858c0-15.643282-12.628622-28.324092-28.452006-28.324092-15.71389 0-28.452006 12.673647-28.452005 28.324092v7.501858c0 15.643282 12.629645 28.324092 28.452005 28.324092zM309.782416 526.648884s2.230808-19.569708 24.186865-19.569708 23.254633 19.569708 23.254633 19.569708c-1.455141 63.368236 28.022217 93.457532 88.366584 90.468454 40.166815-4.516874 60.977793-27.101241 62.369489-67.818595-2.783393-18.134009-18.027585-41.581024-45.163619-70.210061-35.928281-36.20048-53.892421-68.615751-53.892421-97.243765v-29.358655s2.756787-17.509792 22.61302-17.509792 22.61302 17.509792 22.613021 17.509792v20.392446c0 23.912619 17.204847 52.673663 51.679009 85.951581 36.055171 33.079396 53.955866 63.301721 53.955866 90.468454-2.972705 75.324546-42.380226 114.580618-118.538766 117.636211-87.60729 1.462305-131.443681-45.299719-131.443681-140.28607z"  horiz-adv-x="1024" />

    
    <glyph glyph-name="shang" unicode="&#58929;" d="M517.2 657.5c4-0.7 8.1-1.3 12.1-2.2 10.5-2.5 19.6-7.6 27.5-14.9 1.1-1 2.2-2.1 3.2-3.2 148-148 296-295.9 444-443.8 13.7-13.7 20.6-29.9 20-49.4-1.2-34-32.7-62-66.6-59.1-16.5 1.4-30.2 8.2-41.9 19.9L516.2 504.1c-1 1-1.8 2.1-4 4.5-1.2-2-1.9-3.7-3.1-4.9C376 370.5 242.7 237.3 109.6 104c-11-11-23.6-18.6-39.2-20.5-0.4 0-0.7-0.4-1-0.5H55.8c-0.7 0.2-1.4 0.6-2.1 0.7-24.9 3.6-45.1 21.4-51.5 45.7-0.8 3.1-1.5 6.3-2.2 9.4v13.6c0.2 0.3 0.5 0.6 0.5 1 1.9 15.8 9.5 28.4 20.7 39.5 29.1 28.8 58 57.9 86.9 86.8 118.5 118.5 237 236.9 355.4 355.5 6.6 6.6 13.7 12.4 22.5 15.4 8 2.8 16.3 4.7 24.4 7h6.8z"  horiz-adv-x="1024" />

    
    <glyph glyph-name="dui" unicode="&#58907;" d="M512 839.705c-247.437 0-448.766-201.329-448.766-448.766 0-247.436 201.329-448.765 448.766-448.765 247.436 0 448.765 201.329 448.765 448.765 0 247.437-201.328 448.766-448.765 448.766zM512-10.305c-221.259 0-401.244 179.987-401.244 401.244 0 221.26 179.985 401.245 401.244 401.245s401.245-179.985 401.245-401.244c0-221.258-179.986-401.245-401.245-401.245zM752.806 575.732l-317.487-317.486-164.126 164.126c-9.59 9.59-25.14 9.59-34.731 0-9.59-9.591-9.59-25.14 0-34.731l181.491-181.492c9.59-9.59 25.14-9.59 34.731 0l334.852 334.852c9.591 9.591 9.591 25.14 0 34.731-9.59 9.591-25.14 9.591-34.731 0z"  horiz-adv-x="1024" />

    
    <glyph glyph-name="cha1" unicode="&#59020;" d="M511.989767-109.120038c-271.902147 0-493.109805 221.217892-493.109805 493.120038S240.08762 877.120038 511.989767 877.120038s493.130271-221.207659 493.130271-493.120038S783.871447-109.120038 511.989767-109.120038z m0 936.957748c-244.733421 0-443.83771-199.104289-443.83771-443.83771s199.114522-443.83771 443.83771-443.83771S955.786545 139.266579 955.786545 384 756.733421 827.83771 511.989767 827.83771zM686.04357 185.2948a24.5593 24.5593 0 0 0-17.447335 7.224527l-156.770197 156.770196-156.463205-156.729264a24.630931 24.630931 0 1 0-34.792341 34.792341l156.698565 156.770196L320.52956 540.606468a24.651397 24.651397 0 1 0 34.863972 34.863972L512.13303 418.730943l156.463205 156.739497a24.630931 24.630931 0 1 0 34.792341-34.792341L546.700244 383.89767l156.759963-156.493905a24.66163 24.66163 0 0 0-17.396171-42.108965z"  horiz-adv-x="1024" />

    
    <glyph glyph-name="shuru" unicode="&#58933;" d="M861.429 639.353c2.413-5.362 4.346-11.615 5.808-18.765 1.492-7.146 2.233-14.593 2.233-22.336 0-7.744-1.488-15.482-4.469-23.225-2.988-7.746-7.755-15.192-14.291-22.337-7.149-7.151-13.55-13.402-19.212-18.762-5.659-5.362-10.572-10.127-14.743-14.297-4.762-4.764-9.232-8.935-13.402-12.507l-167.08 167.071c7.146 6.553 15.636 14.444 25.461 23.68 9.828 9.232 18.021 16.525 24.572 21.888 8.341 6.551 16.98 11.167 25.915 13.851 8.932 2.678 17.72 3.87 26.355 3.571 8.637-0.3 16.974-1.639 25.02-4.021 8.04-2.382 15.036-5.061 20.991-8.042 12.514-6.557 26.362-18.019 41.552-34.397 15.185-16.377 26.954-33.505 35.29-51.372zM165.405 203.349c3.572 3.573 11.914 12.062 25.015 25.463 13.106 13.404 29.488 29.93 49.142 49.588l65.228 65.217 72.373 72.371 192.1 192.094 167.078-167.968-192.098-192.092-71.478-72.37c-23.826-23.229-45.27-44.526-64.331-63.883-19.06-19.359-34.848-35.29-47.356-47.799-12.51-12.508-19.956-19.656-22.337-21.443-5.953-5.36-12.809-11.018-20.548-16.973-7.743-5.961-15.783-10.724-24.126-14.296-8.336-4.171-20.55-9.232-36.635-15.189-16.08-5.956-32.907-11.763-50.48-17.422-17.569-5.662-34.248-10.575-50.037-14.746-15.784-4.164-27.545-6.849-35.29-8.037-16.086-1.788-26.805 0.596-32.167 7.147-5.36 6.549-6.849 17.568-4.468 33.058 1.192 8.338 4.024 20.396 8.491 36.184a3709.212 3709.212 0 0 0 14.292 49.14c5.065 16.973 9.978 32.61 14.745 46.904 4.765 14.294 8.634 24.124 11.614 29.484 3.575 8.337 7.597 15.933 12.063 22.783 4.468 6.853 10.874 14.445 19.21 22.785zM463.329 34.84h79.902v-79.549h-79.902V34.84z m162.34 0h79.902v-79.549h-79.902V34.84z m162.987 0h79.901v-79.549h-79.901V34.84z"  horiz-adv-x="1024" />

    
    <glyph glyph-name="liuyan" unicode="&#58939;" d="M731.524 384c-30.295 0-54.878 24.591-54.878 54.879 0 30.296 24.583 54.886 54.878 54.886 30.296 0 54.883-24.59 54.883-54.886 0-30.288-24.586-54.879-54.883-54.879z m-219.525 0c-30.295 0-54.88 24.591-54.88 54.879 0 30.296 24.585 54.886 54.88 54.886 30.298 0 54.883-24.59 54.883-54.886-0.001-30.288-24.586-54.879-54.883-54.879z m-219.456 0c-30.294 0-54.879 24.591-54.879 54.879 0 30.296 24.513 54.886 54.879 54.886 30.369 0 54.881-24.59 54.881-54.886 0-30.288-24.583-54.879-54.881-54.879zM511.999 822.981c-242.431 0-438.98-171.964-438.98-384.101 0-121.249 64.324-229.184 164.645-299.577v-194.284l192.303 116.714c26.638-4.388 54.006-6.948 82.032-6.948 242.433 0 438.983 171.963 438.983 384.094-0.001 212.137-196.478 384.102-438.983 384.102z"  horiz-adv-x="1024" />

    
    <glyph glyph-name="shouye" unicode="&#59085;" d="M1016.267939 376.999562L514.249268 846.844463 12.227527 378.377956c-9.815553-9.166777-10.368138-24.580838-1.183966-34.397415 9.166777-9.815553 24.580838-10.367115 34.397415-1.182942l468.774523 437.428608 468.790896-438.758906a24.272823 24.272823 0 0 1 16.630772-6.571672c6.490831 0 12.980639 2.579755 17.764596 7.706519 9.184173 9.8176 8.682753 25.213241-1.133824 34.397414z m-153.198147-9.65387c-13.43294 0-24.337291-10.903328-24.337292-24.337292v-373.176234H644.0311V229.431645H384.43162v-259.600503H189.73022V343.007377c0 13.433964-10.887978 24.337291-24.338315 24.337291s-24.337291-10.903328-24.337291-24.337291v-421.850817h292.049542V180.758086H595.355494v-259.601526h292.049542V343.007377c0.002047 13.43294-10.900258 24.338315-24.335244 24.338315zM692.707729 716.184635h146.024771v-129.800252c0-13.450337 10.904351-24.337291 24.337292-24.337291 13.434987 0 24.336268 10.886955 24.336268 24.337291V764.860241H692.707729c-13.434987 0-24.337291-10.887978-24.337291-24.338315-0.001023-13.449313 10.902304-24.337291 24.337291-24.337291z"  horiz-adv-x="1024" />

    
    <glyph glyph-name="wanju" unicode="&#58900;" d="M301.941 2.487v229.76H177.786c-37.739 0-68.506 30-68.506 66.651 0 36.588 30.767 66.587 68.506 66.587h668.492c37.675 0 68.506-30 68.506-66.587 0-36.651-30.831-66.65-68.506-66.65h-138.93l-0.129-236.797v-29.295c0-47.782-40.297-79.764-89.486-79.764s-89.422 31.982-89.422 79.764V45.47h-47.334v-78.036c0-47.782-40.233-79.764-89.486-79.764-49.189 0-89.422 31.982-89.422 79.764v35.052zM617.67-127.936c-59.36 0-104.135 40.425-104.135 94.092v65.18h-17.91v-63.837c0-53.666-44.775-94.092-104.134-94.092-59.423 0-104.134 40.426-104.134 94.092V218.047h-109.57c-45.863 0-83.219 36.268-83.219 80.915s37.356 80.851 83.218 80.851h668.492c45.862 0 83.218-36.204 83.218-80.85 0-44.584-37.356-80.916-83.218-80.916H722.123l-0.192-251.891c-0.064-53.667-44.839-94.092-104.262-94.092M480.913 59.799h47.334c8.123 0 14.712-6.396 14.712-14.328v-79.315c0-37.995 31.47-65.372 74.71-65.372 43.432 0 74.775 27.44 74.775 65.372l0.191 266.091c0 7.932 6.589 14.328 14.648 14.328h138.93c29.68 0 53.795 23.475 53.795 52.323s-24.115 52.323-53.794 52.323H177.786c-29.68 0-53.794-23.475-53.794-52.323s24.115-52.323 53.794-52.323h124.155c8.123 0 14.712-6.396 14.712-14.328v-264.812c0-37.867 31.47-65.372 74.774-65.372s74.71 27.569 74.71 65.372V45.47c0 3.902 1.536 7.484 4.286 10.107a15.351 15.351 0 0 0 10.49 4.221M199.022 365.421h29.424v-133.238h-29.424z m592.566 0.128h29.424v-133.174h-29.424zM504.9 104.894a14.52 14.52 0 0 0-14.648 14.328V318.407c0 7.932 6.588 14.328 14.648 14.328 8.123 0 14.712-6.396 14.712-14.328v-199.185a14.456 14.456 0 0 0-14.712-14.328M143.885 302.352c-1.023 21.109 18.55 39.722 38.059 48.87-33.645 1.087-58.847-23.156-58.847-52.324 0-29.743 25.202-53.09 58.847-53.09l13.944 0.64s-49.892 10.618-52.003 55.904M880.499 302.736c1.023 21.044-18.55 39.658-38.123 48.933 33.645 1.087 58.911-23.283 58.911-52.45 0-29.744-25.202-52.963-58.911-52.963l-13.944 0.64c0-0.065 49.956 10.553 52.067 55.84M312.24 236.533v-258.864c0-46.63 32.685-75.798 79.123-75.798 4.734 0 9.339 0.32 13.88 1.024C365.266-91.476 340-63.78 340-21.115V241.841h-27.76M695.13 232.887v-258.672c0-46.694-32.686-73.175-79.188-73.175-4.67 0-9.339 0.32-13.88 1.023 39.914 5.693 65.244 30.703 65.244 73.303V238.26h27.888M246.932 710.573a93.964 93.964 0 0 0-32.878 101.831C229.469 863 284.159 891.848 336.226 876.88c14.264-4.093 26.801-11.065 37.227-20.02M237.72 699.443a107.716 107.716 0 0 0-37.802 117.055c17.654 58.08 80.787 91.341 140.466 74.135 15.99-4.606 30.447-12.345 42.792-23.027L363.73 846.178a83.985 83.985 0 0 1-31.663 17.014c-44.2 12.729-90.83-11.833-103.942-54.817-9.723-31.919 1.28-65.884 27.953-86.608l-18.358-22.324zM754.297 713.323A93.772 93.772 0 0 1 782.953 816.37C765.555 866.326 709.65 893.063 658.223 876.05c-14.073-4.67-26.354-12.09-36.332-21.428M763.892 702.514l-19.254 21.62c25.778 21.747 35.437 56.16 24.37 87.63-7.163 20.533-22.13 37.164-42.152 46.759s-42.792 11.002-63.9 3.965c-11.706-3.837-22.132-9.978-30.895-18.165l-20.404 20.596a115.584 115.584 0 0 0 128.248 19.253c27.057-12.984 47.27-35.436 57.056-63.196a107.652 107.652 0 0 0-33.07-118.462M766.13 621.982c0-141.617-118.142-256.497-263.853-256.497-145.774 0-263.917 114.88-263.917 256.497S356.503 878.416 502.277 878.416c145.711 0 263.853-114.817 263.853-256.434M502.277 351.221c-153.642 0-278.628 121.405-278.628 270.697S348.635 892.68 502.277 892.68c153.579 0 278.565-121.469 278.565-270.762S655.856 351.221 502.277 351.221m0 512.93c-137.459 0-249.205-108.675-249.205-242.169 0-133.557 111.81-242.233 249.205-242.233 137.332 0 249.206 108.676 249.206 242.233-0.064 133.494-111.874 242.17-249.206 242.17M289.468 621.023c0 128.376 102.535 233.47 232.638 242.873a226.754 226.754 0 0 1-18.677 0.831c-138.995 0-251.636-109.123-251.636-243.704s112.641-243.704 251.636-243.704c6.268 0 12.473 0.32 18.677 0.767-130.103 9.53-232.638 114.56-232.638 242.937M718.541 623.262A241.146 241.146 0 0 1 495.817 863.96a241.21 241.21 0 0 0 258.864-240.634 241.274 241.274 0 0 0-258.864-240.634 241.082 241.082 0 0 1 222.724 240.57M628.031 546.44c0-66.33-55.329-120.125-123.643-120.125-68.25 0-123.643 53.858-123.643 120.125 0 66.395 55.33 120.19 123.643 120.19s123.643-53.73 123.643-120.19M504.388 412.051c-76.245 0-138.355 60.319-138.355 134.39 0 74.134 62.11 134.517 138.355 134.517 76.31 0 138.355-60.319 138.355-134.518 0-74.07-62.045-134.389-138.355-134.389m0 240.314c-60.062 0-108.931-47.461-108.931-105.86 0-58.336 48.869-105.798 108.931-105.798 60.063 0 108.996 47.462 108.996 105.797 0 58.4-48.87 105.861-108.996 105.861M555.944 562.943c0-18.933-23.028-34.285-51.492-34.285-28.4 0-51.491 15.288-51.491 34.285 0 18.998 23.027 34.35 51.491 34.35s51.492-15.352 51.492-34.35M504.388 514.394c-37.1 0-66.203 21.3-66.203 48.613s29.104 48.613 66.203 48.613c37.164 0 66.267-21.364 66.267-48.613s-29.103-48.613-66.267-48.613m0 68.634c-21.044 0-36.78-10.618-36.78-20.02s15.736-20.022 36.78-20.022 36.78 10.618 36.78 20.021c0.064 9.403-15.735 20.021-36.78 20.021M504.388 456.123c-8.123 0-14.712 6.396-14.712 14.328v58.271c0 7.932 6.589 14.328 14.712 14.328s14.712-6.396 14.712-14.328v-58.271a14.456 14.456 0 0 0-14.712-14.328m-83.921 284.385a20.66 20.66 0 0 0-21.044-20.34 20.66 20.66 0 0 0-20.917 20.34c0 11.258 9.34 20.405 20.917 20.405 11.577 0 21.044-9.147 21.044-20.405m197.906 0a20.66 20.66 0 0 0-21.045-20.34 20.66 20.66 0 0 0-20.916 20.34c0 11.258 9.339 20.405 20.916 20.405 11.642 0 21.045-9.147 21.045-20.405M675.685 436.997v-126.841l-109.891 63.645zM675.685 295.828a15.991 15.991 0 0 0-7.548 1.919l-109.89 63.836a14.136 14.136 0 0 0-7.165 12.218c0 5.053 2.75 9.786 7.228 12.345l109.891 63.069a15.16 15.16 0 0 0 14.84 0.127c4.541-2.558 7.356-7.291 7.356-12.409v-126.841a14.072 14.072 0 0 0-7.42-12.41 15.415 15.415 0 0 0-7.292-1.854m-81.107 77.973l66.395-38.571v76.63l-66.395-38.06zM338.784 436.997v-126.841l109.891 63.645zM338.784 295.828a15.224 15.224 0 0 0-7.291 1.855 14.2 14.2 0 0 0-7.42 12.473V436.997c0 5.118 2.814 9.85 7.42 12.41a15.032 15.032 0 0 0 14.775-0.128l109.891-63.07c4.478-2.558 7.228-7.291 7.228-12.344a14.008 14.008 0 0 0-7.164-12.218l-109.955-63.9a15.543 15.543 0 0 0-7.484-1.919m14.648 116.031v-76.629l66.395 38.57-66.395 38.06zM410.489 378.854l-57.12-33.134v-10.362l66.139 38.315z m193.492 0l57.12-33.134v-10.362l-66.14 38.315zM518.14 324.676H490.7a36.716 36.716 0 0 0-36.588 36.588v24.562c0 20.085 16.503 36.524 36.588 36.524h27.377c20.084 0 36.587-16.44 36.587-36.524v-24.562a36.652 36.652 0 0 0-36.523-36.588M504.388 310.348c-35.82 0-64.988 28.336-64.988 63.133 0 34.86 29.168 63.133 64.988 63.133 35.884 0 64.988-28.273 64.988-63.133s-29.104-63.133-64.988-63.133m0 97.674a35.18 35.18 0 0 1-35.564-34.605c0-18.934 15.991-34.477 35.564-34.477a35.116 35.116 0 0 1 35.564 34.477 35.052 35.052 0 0 1-35.564 34.605M533.94 373.48c0-17.845-13.944-32.621-31.663-34.412l3.454-0.192c19.318 0 35.18 15.671 35.18 34.605a35.052 35.052 0 0 1-38.634 34.477 34.925 34.925 0 0 0 31.663-34.477M475.412 373.48c0-17.845 14.009-32.621 31.663-34.412-1.088-0.064-2.239-0.192-3.454-0.192a35.052 35.052 0 0 0-35.117 34.605 34.989 34.989 0 0 0 38.57 34.477 34.989 34.989 0 0 1-31.662-34.477M707.22 95.044H301.94c-8.123 0-14.712 6.396-14.712 14.328s6.588 14.328 14.712 14.328h405.214c8.124 0 14.648-6.397 14.648-14.328s-6.46-14.328-14.584-14.328"  horiz-adv-x="1024" />

    
    <glyph glyph-name="weixinzhifu" unicode="&#58892;" d="M390.382022 251.200082c-61.291946-37.023203-70.382769 20.775774-70.382769 20.775774l-76.811198 194.149947c-29.559398 92.262185 25.577185 41.597058 25.577185 41.597059s47.30869-38.763998 83.216872-62.38421c35.885427-23.631589 76.788443-6.940428 76.788443-6.940429l502.179806 251.072837C838.289955 814.353257 685.247823 896 511.97605 896 229.204799 896 0 678.707707 0 410.647888c0-154.202662 75.889601-291.418342 194.115814-380.358224l-21.321906-132.755601s-10.399265-38.752621 25.622696-20.775774c24.541809 12.24246 87.108063 56.183336 124.358821 82.886918A535.232173 535.232173 0 0 1 511.998805-74.715602c282.748496 0 511.998805 217.292293 511.998806 485.352112 0 77.641774-19.319422 150.971381-53.53232 216.063496-160.005316-104.265712-532.137425-346.589058-580.083269-375.499924z"  horiz-adv-x="1024" />

    
    <glyph glyph-name="liebiao" unicode="&#58951;" d="M644.8 609.6H840c11.2 0 20.8 8.8 20.8 20.8 0 11.2-8.8 20.8-20.8 20.8H644.8c-11.2 0-20.8-8.8-20.8-20.8s8.8-20.8 20.8-20.8zM184 609.6h378.4c11.2 0 20.8 8.8 20.8 20.8 0 11.2-8.8 20.8-20.8 20.8H184c-11.2 0-20.8-8.8-20.8-20.8 0.8-12 9.6-20.8 20.8-20.8zM184 363.2h296c11.2 0 20.8 8.8 20.8 20.8 0 11.2-8.8 20.8-20.8 20.8H184c-11.2 0-20.8-8.8-20.8-20.8 0.8-11.2 9.6-20.8 20.8-20.8zM840 404.8H562.4c-11.2 0-20.8-8.8-20.8-20.8 0-11.2 8.8-20.8 20.8-20.8H840c11.2 0 20.8 8.8 20.8 20.8-0.8 11.2-9.6 20.8-20.8 20.8zM840 158.4h-72c-11.2 0-20.8-8.8-20.8-20.8 0-11.2 8.8-20.8 20.8-20.8h72c11.2 0 20.8 8.8 20.8 20.8-0.8 12-9.6 20.8-20.8 20.8zM685.6 158.4H184c-11.2 0-20.8-8.8-20.8-20.8 0-11.2 8.8-20.8 20.8-20.8h500.8c11.2 0 20.8 8.8 20.8 20.8s-8.8 20.8-20 20.8z"  horiz-adv-x="1024" />

    
    <glyph glyph-name="svg-" unicode="&#58881;" d="M245.366 339.603l444.348-444.471c24.59-24.59 64.33-24.59 88.919 0 24.466 24.466 24.59 64.33 0 88.919l-399.887 400.012 399.887 400.012c24.466 24.466 24.59 64.33 0 88.919s-64.33 24.466-88.919 0l-444.348-444.471c-24.59-24.59-24.59-64.33 0-88.919z"  horiz-adv-x="1024" />

    
    <glyph glyph-name="yaoqingma" unicode="&#58904;" d="M966.74 13.71H67.62a25 25 0 0 0-25 25V283.38a25 25 0 0 0 26.82 24.93c1.81-0.13 3.63-0.2 5.41-0.2a72.63 72.63 0 1 1 0 145.27c-1.77 0-3.59-0.07-5.41-0.2a25 25 0 0 0-26.82 24.93V722.78a25 25 0 0 0 25 25h899.12a25 25 0 0 0 25-25v-244.51a25 25 0 0 0-23.85-25 72.63 72.63 0 0 1 0-145.1 25 25 0 0 0 23.85-25v-244.46a25 25 0 0 0-25-25z m-874.12 50h849.12v198a122.69 122.69 0 0 0 0 238.12v198H92.62V502.1a122.65 122.65 0 0 0 0-242.7zM773.42 531.33H260.94a25 25 0 1 0 0 50h512.48a25 25 0 0 0 0-50z"  horiz-adv-x="1024" />

    


  </font>
</defs>
</svg>
